<svg t="1766886139970" class="icon" viewBox="0 0 1024 1024" version="1.1" xmlns="http://www.w3.org/2000/svg" p-id="1252" width="200" height="200"><path d="M1.109333 681.429333v342.442667h454.186667V569.173333H1.109333v112.256z m397.44-55.424v113.664l-113.578666-113.664h113.578666z m-227.114666 0l227.114666 227.370667v56.832l-283.861333-284.16h56.746667z m-113.536 56.832l283.861333 284.16H285.013333l-227.114666-227.328v-56.832z m0 170.538667l113.536 113.664H57.898667V853.333333zM1023.018667 0.810667H568.917333v454.698666h454.186667V0.810667z m-397.397334 397.866666V284.970667l113.578667 113.706666h-113.578667z m227.114667 0l-227.114667-227.370666V114.474667l283.861334 284.16h-56.746667z m113.536-56.832L682.410667 57.6h56.746666l227.114667 227.328v56.874667z m0-170.538666l-113.536-113.664h113.536v113.664z" fill="#013378" p-id="1253"></path><path d="M1023.061333 569.173333v452.565334l-454.186666 2.133333V569.173333h454.186666z m-70.912 70.997334h-312.405333v312.704h312.405333v-312.704zM455.296 0.810667v454.698666H1.109333V0.810667H455.253333z m-70.826667 70.997333H71.978667v312.704H384.426667V71.808z" fill="#EB1302" p-id="1254"></path></svg>